<svg xmlns="http://www.w3.org/2000/svg" viewBox="0 0 400 540" width="400" height="540" role="img" aria-label="Embedded systems card front - circuit artwork">
  <defs>
    <linearGradient id="bg" x1="0" y1="0" x2="1" y2="1">
      <stop offset="0%" stop-color="#0b1220"/>
      <stop offset="60%" stop-color="#111827"/>
      <stop offset="100%" stop-color="#1f2937"/>
    </linearGradient>
    <linearGradient id="edge" x1="0" y1="0" x2="1" y2="1">
      <stop offset="0%" stop-color="#fbbf24"/>
      <stop offset="50%" stop-color="#f59e0b"/>
      <stop offset="100%" stop-color="#fbbf24"/>
    </linearGradient>
    <pattern id="grid" width="20" height="20" patternUnits="userSpaceOnUse">
      <path d="M 20 0 L 0 0 0 20" fill="none" stroke="#fbbf24" stroke-opacity="0.06" stroke-width="1"/>
    </pattern>
  </defs>
  <rect width="400" height="540" rx="28" fill="url(#bg)"/>
  <rect width="400" height="540" rx="28" fill="url(#grid)"/>
  <rect x="6" y="6" width="388" height="528" rx="24" fill="none" stroke="url(#edge)" stroke-width="2"/>

  <g fill="none" stroke="#fbbf24" stroke-opacity="0.4" stroke-width="1.5">
    <path d="M40 80 L120 80 L120 140 L200 140"/>
    <path d="M40 200 L100 200 L100 260 L200 260"/>
    <path d="M360 100 L300 100 L300 180 L240 180"/>
    <path d="M360 320 L260 320 L260 380 L200 380"/>
    <path d="M200 460 L200 500 L320 500"/>
  </g>
  <g fill="#fbbf24">
    <circle cx="120" cy="140" r="4"/><circle cx="100" cy="260" r="4"/>
    <circle cx="300" cy="180" r="4"/><circle cx="260" cy="380" r="4"/>
  </g>

  <g>
    <rect x="130" y="200" width="140" height="140" rx="10" fill="#1f2937" stroke="#fbbf24" stroke-width="2"/>
    <rect x="138" y="208" width="124" height="124" rx="6" fill="none" stroke="#fbbf24" stroke-opacity="0.3"/>
    <circle cx="148" cy="218" r="3" fill="#fbbf24"/>
    <text x="200" y="258" text-anchor="middle" font-family="Inter, sans-serif" font-size="14" font-weight="700" fill="#fbbf24">EMBEDDED</text>
    <text x="200" y="280" text-anchor="middle" font-family="Inter, sans-serif" font-size="14" font-weight="700" fill="#fbbf24">SYSTEMS</text>
    <text x="200" y="306" text-anchor="middle" font-family="Inter, sans-serif" font-size="9" fill="#9ca3af">CAN / J1939</text>
    <g fill="#9ca3af">
      <rect x="115" y="210" width="15" height="5" rx="1"/><rect x="115" y="225" width="15" height="5" rx="1"/><rect x="115" y="240" width="15" height="5" rx="1"/><rect x="115" y="255" width="15" height="5" rx="1"/><rect x="115" y="270" width="15" height="5" rx="1"/><rect x="115" y="285" width="15" height="5" rx="1"/><rect x="115" y="300" width="15" height="5" rx="1"/><rect x="115" y="315" width="15" height="5" rx="1"/>
      <rect x="270" y="210" width="15" height="5" rx="1"/><rect x="270" y="225" width="15" height="5" rx="1"/><rect x="270" y="240" width="15" height="5" rx="1"/><rect x="270" y="255" width="15" height="5" rx="1"/><rect x="270" y="270" width="15" height="5" rx="1"/><rect x="270" y="285" width="15" height="5" rx="1"/><rect x="270" y="300" width="15" height="5" rx="1"/><rect x="270" y="315" width="15" height="5" rx="1"/>
    </g>
  </g>

  <text x="200" y="50" text-anchor="middle" font-family="Inter, sans-serif" font-size="13" font-weight="600" fill="#9ca3af" letter-spacing="3">HARDIK DARJI</text>
  <text x="200" y="100" text-anchor="middle" font-family="Inter, sans-serif" font-size="11" fill="#fbbf24" letter-spacing="2">HOVER / TAP TO FLIP</text>
  <text x="200" y="500" text-anchor="middle" font-family="Inter, sans-serif" font-size="10" fill="#6b7280">Ammann India • Ahmedabad</text>
</svg>
